{"title":"It's Entertainment (2014) DVDScr x264 1CD {GreatPalash}","uid":10723432,"size":733573577,"categoryP":"video","categoryS":"movies","magnet":"?xt=urn:btih:91d9b3cfd09c4954f68db76091bbc00d50a0952f&amp;dn=It%27s+Entertainment+%282014%29+DVDScr+x264+1CD+%7BGreatPalash%7D&amp;tr=udp%3A%2F%2Ftracker.openbittorrent.com%3A80&amp;tr=udp%3A%2F%2Fopen.demonii.com%3A1337&amp;tr=udp%3A%2F%2Ftracker.coppersurfer.tk%3A6969&amp;tr=udp%3A%2F%2Fexodus.desync.com%3A6969","seeders":11,"leechers":18,"uploader":"Palash995","files":-1,"time":1407517645,"description":" &lt;a href=&quot;http://s25.postimg.org/b402e58y7/Its_Entertainment.jpg&quot; rel=&quot;nofollow&quot; target=&quot;_NEW&quot;&gt;http://s25.postimg.org/b402e58y7/Its_Entertainment.jpg&lt;/a&gt;\n\nScreenshots:-\n &lt;a href=&quot;\nhttp://s25.postimg.org/4rkx4b5vz/image_1.jpg&quot; rel=&quot;nofollow&quot; target=&quot;_NEW&quot;&gt;\nhttp://s25.postimg.org/4rkx4b5vz/image_1.jpg&lt;/a&gt;\n &lt;a href=&quot;\nhttp://s25.postimg.org/xv950jtzj/image_2.jpg&quot; rel=&quot;nofollow&quot; target=&quot;_NEW&quot;&gt;\nhttp://s25.postimg.org/xv950jtzj/image_2.jpg&lt;/a&gt;\n &lt;a href=&quot;\nhttp://s25.postimg.org/ritzqpqxb/image_3.jpg&quot; rel=&quot;nofollow&quot; target=&quot;_NEW&quot;&gt;\nhttp://s25.postimg.org/ritzqpqxb/image_3.jpg&lt;/a&gt;\n &lt;a href=&quot;\nhttp://s25.postimg.org/psayp89e7/image_4.jpg&quot; rel=&quot;nofollow&quot; target=&quot;_NEW&quot;&gt;\nhttp://s25.postimg.org/psayp89e7/image_4.jpg&lt;/a&gt;\n &lt;a href=&quot;\nhttp://s25.postimg.org/cdxvt72q7/image_6.jpg&quot; rel=&quot;nofollow&quot; target=&quot;_NEW&quot;&gt;\nhttp://s25.postimg.org/cdxvt72q7/image_6.jpg&lt;/a&gt;\n\nMedia Info:-\n\nGeneral\nComplete name                            : It's Entertainment (2014) DVDScr x264 - 1CD- {GreatPalash}.mkv\nFormat                                   : Matroska\nFormat version                           : Version 2\nFile size                                : 700 MiB\nDuration                                 : 2h 18mn\nOverall bit rate                         : 706 Kbps\n\nVideo\nID                                       : 1\nFormat                                   : AVC\nFormat/Info                              : Advanced Video Codec\nFormat profile                           : &lt;a class=&quot;__cf_email__&quot; href=&quot;/cdn-cgi/l/email-protection&quot; data-cfemail=&quot;b3fbdad4dbf3ff809d83&quot;&gt;[email&amp;#160;protected]&lt;/a&gt;&lt;script cf-hash='f9e31' type=&quot;text/javascript&quot;&gt;\n/* &lt;![CDATA[ */!function(){try{var t=&quot;currentScript&quot;in document?document.currentScript:function(){for(var t=document.getElementsByTagName(&quot;script&quot;),e=t.length;e--;)if(t[e].getAttribute(&quot;cf-hash&quot;))return t[e]}();if(t&amp;&amp;t.previousSibling){var e,r,n,i,c=t.previousSibling,a=c.getAttribute(&quot;data-cfemail&quot;);if(a){for(e=&quot;&quot;,r=parseInt(a.substr(0,2),16),n=2;a.length-n;n+=2)i=parseInt(a.substr(n,2),16)^r,e+=String.fromCharCode(i);e=document.createTextNode(e),c.parentNode.replaceChild(e,c)}}}catch(u){}}();/* ]]&gt; */&lt;/script&gt;\nFormat settings, CABAC                   : Yes\nFormat settings, ReFrames                : 4 frames\nCodec ID                                 : V_MPEG4/ISO/AVC\nDuration                                 : 2h 18mn\nBit rate                                 : 624 Kbps\nWidth                                    : 640 pixels\nHeight                                   : 272 pixels\nDisplay aspect ratio                     : 2.35:1\nFrame rate                               : 29.970 fps\nColor space                              : YUV\nChroma subsampling                       : 4:2:0\nBit depth                                : 8 bits\nScan type                                : Progressive\nBits/(Pixel*Frame)                       : 0.120\nStream size                              : 606 MiB (87%)\nWriting library                          : x264 core 142 r2431 ac76440\nLanguage                                 : English\nDefault                                  : Yes\nForced                                   : No\nDURATION                                 : 02:18:31.569000000\nNUMBER_OF_FRAMES                         : 249098\nNUMBER_OF_BYTES                          : 648400758\n\nAudio\nID                                       : 2\nFormat                                   : MPEG Audio\nFormat version                           : Version 1\nFormat profile                           : Layer 3\nMode                                     : Joint stereo\nMode extension                           : MS Stereo\nCodec ID                                 : A_MPEG/L3\nCodec ID/Hint                            : MP3\nDuration                                 : 2h 18mn\nBit rate mode                            : Constant\nBit rate                                 : 80.0 Kbps\nChannel(s)                               : 2 channels\nSampling rate                            : 32.0 KHz\nCompression mode                         : Lossy\nStream size                              : 79.3 MiB (11%)\nWriting library                          : LAME3.99r\nEncoding settings                        : -m j -V 4 -q 2 -lowpass 13.5 -b 80\nDefault                                  : Yes\nForced                                   : No\n\nOriginal Source : Team IcTv","torrent":{"xt":"urn:btih:91d9b3cfd09c4954f68db76091bbc00d50a0952f","amp;dn":"It%27s+Entertainment+%282014%29+DVDScr+x264+1CD+%7BGreatPalash%7D","amp;tr":["udp%3A%2F%2Ftracker.openbittorrent.com%3A80","udp%3A%2F%2Fopen.demonii.com%3A1337","udp%3A%2F%2Ftracker.coppersurfer.tk%3A6969","udp%3A%2F%2Fexodus.desync.com%3A6969"],"infoHash":"91d9b3cfd09c4954f68db76091bbc00d50a0952f","infoHashBuffer":{"type":"Buffer","data":[145,217,179,207,208,156,73,84,246,141,183,96,145,187,192,13,80,160,149,47]},"announce":[],"urlList":[]}}